<svg width="142" height="32" viewBox="0 0 142 32" fill="none" xmlns="http://www.w3.org/2000/svg">
<rect width="32" height="32" fill="#5865F2"/>
<path fill-rule="evenodd" clip-rule="evenodd" d="M23.4044 9.39583C22.0234 8.74375 20.5469 8.26985 19.0031 8C18.8136 8.34593 18.5921 8.81122 18.4393 9.18135C16.7983 8.93228 15.1724 8.93228 13.5616 9.18135C13.4089 8.81122 13.1824 8.34593 12.9911 8C11.4457 8.26985 9.96746 8.74549 8.58651 9.39928C5.80113 13.6472 5.04606 17.7897 5.4236 21.8733C7.27101 23.2657 9.06137 24.1115 10.8215 24.665C11.2561 24.0613 11.6437 23.4196 11.9776 22.7433C11.3417 22.4995 10.7326 22.1985 10.1571 21.8491C10.3098 21.735 10.4591 21.6156 10.6034 21.4928C14.1136 23.1498 17.9276 23.1498 21.3959 21.4928C21.5419 21.6156 21.6912 21.735 21.8422 21.8491C21.265 22.2002 20.6542 22.5012 20.0183 22.7451C20.3522 23.4196 20.7381 24.0631 21.1744 24.6667C22.9362 24.1132 24.7283 23.2674 26.5757 21.8733C27.0187 17.1394 25.8189 13.035 23.4044 9.39583ZM12.4558 19.3619C11.4021 19.3619 10.5379 18.3691 10.5379 17.1601C10.5379 15.9511 11.3836 14.9566 12.4558 14.9566C13.5281 14.9566 14.3922 15.9494 14.3737 17.1601C14.3754 18.3691 13.5281 19.3619 12.4558 19.3619ZM17.626 17.1601C17.626 18.3691 18.4901 19.3619 19.5439 19.3619C20.6161 19.3619 21.4618 18.3691 21.4618 17.1601C21.4802 15.9493 20.6161 14.9565 19.5439 14.9565C18.4716 14.9565 17.626 15.9511 17.626 17.1601Z" fill="white"/>
<mask id="path-3-inside-1_133_615" fill="white">
<path d="M32 0H142V32H32V0Z"/>
</mask>
<path d="M32 0H142V32H32V0Z" fill="white"/>
<path d="M51.0186 22H48.2852L48.3027 20.251H51.0186C51.8096 20.251 52.4717 20.0781 53.0049 19.7324C53.5439 19.3867 53.9482 18.8916 54.2178 18.2471C54.4932 17.6025 54.6309 16.835 54.6309 15.9443V15.25C54.6309 14.5586 54.5518 13.9463 54.3936 13.4131C54.2412 12.8799 54.0127 12.4316 53.708 12.0684C53.4092 11.7051 53.04 11.4297 52.6006 11.2422C52.167 11.0547 51.666 10.9609 51.0977 10.9609H48.2324V9.20312H51.0977C51.9473 9.20312 52.7236 9.34668 53.4268 9.63379C54.1299 9.91504 54.7363 10.3223 55.2461 10.8555C55.7617 11.3887 56.1572 12.0273 56.4326 12.7715C56.708 13.5156 56.8457 14.3477 56.8457 15.2676V15.9443C56.8457 16.8643 56.708 17.6963 56.4326 18.4404C56.1572 19.1846 55.7617 19.8232 55.2461 20.3564C54.7305 20.8838 54.1152 21.291 53.4004 21.5781C52.6914 21.8594 51.8975 22 51.0186 22ZM49.5068 9.20312V22H47.3008V9.20312H49.5068ZM61.1172 12.4902V22H58.9902V12.4902H61.1172ZM58.8496 9.99414C58.8496 9.67188 58.9551 9.40527 59.166 9.19434C59.3828 8.97754 59.6816 8.86914 60.0625 8.86914C60.4375 8.86914 60.7334 8.97754 60.9502 9.19434C61.167 9.40527 61.2754 9.67188 61.2754 9.99414C61.2754 10.3105 61.167 10.5742 60.9502 10.7852C60.7334 10.9961 60.4375 11.1016 60.0625 11.1016C59.6816 11.1016 59.3828 10.9961 59.166 10.7852C58.9551 10.5742 58.8496 10.3105 58.8496 9.99414ZM68.7725 19.4248C68.7725 19.2139 68.7197 19.0234 68.6143 18.8535C68.5088 18.6777 68.3066 18.5195 68.0078 18.3789C67.7148 18.2383 67.2812 18.1094 66.707 17.9922C66.2031 17.8809 65.7402 17.749 65.3184 17.5967C64.9023 17.4385 64.5449 17.248 64.2461 17.0254C63.9473 16.8027 63.7158 16.5391 63.5518 16.2344C63.3877 15.9297 63.3057 15.5781 63.3057 15.1797C63.3057 14.793 63.3906 14.4268 63.5605 14.0811C63.7305 13.7354 63.9736 13.4307 64.29 13.167C64.6064 12.9033 64.9902 12.6953 65.4414 12.543C65.8984 12.3906 66.4082 12.3145 66.9707 12.3145C67.7676 12.3145 68.4502 12.4492 69.0186 12.7188C69.5928 12.9824 70.0322 13.3428 70.3369 13.7998C70.6416 14.251 70.7939 14.7607 70.7939 15.3291H68.6758C68.6758 15.0771 68.6113 14.8428 68.4824 14.626C68.3594 14.4033 68.1719 14.2246 67.9199 14.0898C67.668 13.9492 67.3516 13.8789 66.9707 13.8789C66.6074 13.8789 66.3057 13.9375 66.0654 14.0547C65.8311 14.166 65.6553 14.3125 65.5381 14.4941C65.4268 14.6758 65.3711 14.875 65.3711 15.0918C65.3711 15.25 65.4004 15.3936 65.459 15.5225C65.5234 15.6455 65.6289 15.7598 65.7754 15.8652C65.9219 15.9648 66.1211 16.0586 66.373 16.1465C66.6309 16.2344 66.9531 16.3193 67.3398 16.4014C68.0664 16.5537 68.6904 16.75 69.2119 16.9902C69.7393 17.2246 70.1436 17.5293 70.4248 17.9043C70.7061 18.2734 70.8467 18.7422 70.8467 19.3105C70.8467 19.7324 70.7559 20.1191 70.5742 20.4707C70.3984 20.8164 70.1406 21.1182 69.8008 21.376C69.4609 21.6279 69.0537 21.8242 68.5791 21.9648C68.1104 22.1055 67.583 22.1758 66.9971 22.1758C66.1357 22.1758 65.4062 22.0234 64.8086 21.7188C64.2109 21.4082 63.7568 21.0127 63.4463 20.5322C63.1416 20.0459 62.9893 19.542 62.9893 19.0205H65.0371C65.0605 19.4131 65.1689 19.7266 65.3623 19.9609C65.5615 20.1895 65.8076 20.3564 66.1006 20.4619C66.3994 20.5615 66.707 20.6113 67.0234 20.6113C67.4043 20.6113 67.7236 20.5615 67.9814 20.4619C68.2393 20.3564 68.4355 20.2158 68.5703 20.04C68.7051 19.8584 68.7725 19.6533 68.7725 19.4248ZM76.5859 20.4883C76.9316 20.4883 77.2422 20.4209 77.5176 20.2861C77.7988 20.1455 78.0244 19.9521 78.1943 19.7061C78.3701 19.46 78.4668 19.1758 78.4844 18.8535H80.4795C80.4678 19.4688 80.2861 20.0283 79.9346 20.5322C79.583 21.0361 79.1172 21.4375 78.5371 21.7363C77.957 22.0293 77.3154 22.1758 76.6123 22.1758C75.8857 22.1758 75.2529 22.0527 74.7139 21.8066C74.1748 21.5547 73.7266 21.209 73.3691 20.7695C73.0117 20.3301 72.7422 19.8232 72.5605 19.249C72.3848 18.6748 72.2969 18.0596 72.2969 17.4033V17.0957C72.2969 16.4395 72.3848 15.8242 72.5605 15.25C72.7422 14.6699 73.0117 14.1602 73.3691 13.7207C73.7266 13.2812 74.1748 12.9385 74.7139 12.6924C75.2529 12.4404 75.8828 12.3145 76.6035 12.3145C77.3652 12.3145 78.0332 12.4668 78.6074 12.7715C79.1816 13.0703 79.6328 13.4893 79.9609 14.0283C80.2949 14.5615 80.4678 15.1826 80.4795 15.8916H78.4844C78.4668 15.54 78.3789 15.2236 78.2207 14.9424C78.0684 14.6553 77.8516 14.4268 77.5703 14.2568C77.2949 14.0869 76.9639 14.002 76.5771 14.002C76.1494 14.002 75.7949 14.0898 75.5137 14.2656C75.2324 14.4355 75.0127 14.6699 74.8545 14.9688C74.6963 15.2617 74.582 15.5928 74.5117 15.9619C74.4473 16.3252 74.415 16.7031 74.415 17.0957V17.4033C74.415 17.7959 74.4473 18.1768 74.5117 18.5459C74.5762 18.915 74.6875 19.2461 74.8457 19.5391C75.0098 19.8262 75.2324 20.0576 75.5137 20.2334C75.7949 20.4033 76.1523 20.4883 76.5859 20.4883ZM81.7012 17.3506V17.1484C81.7012 16.4629 81.8008 15.8271 82 15.2412C82.1992 14.6494 82.4863 14.1367 82.8613 13.7031C83.2422 13.2637 83.7051 12.9238 84.25 12.6836C84.8008 12.4375 85.4219 12.3145 86.1133 12.3145C86.8105 12.3145 87.4316 12.4375 87.9766 12.6836C88.5273 12.9238 88.9932 13.2637 89.374 13.7031C89.7549 14.1367 90.0449 14.6494 90.2441 15.2412C90.4434 15.8271 90.543 16.4629 90.543 17.1484V17.3506C90.543 18.0361 90.4434 18.6719 90.2441 19.2578C90.0449 19.8438 89.7549 20.3564 89.374 20.7959C88.9932 21.2295 88.5303 21.5693 87.9854 21.8154C87.4404 22.0557 86.8223 22.1758 86.1309 22.1758C85.4336 22.1758 84.8096 22.0557 84.2588 21.8154C83.7139 21.5693 83.251 21.2295 82.8701 20.7959C82.4893 20.3564 82.1992 19.8438 82 19.2578C81.8008 18.6719 81.7012 18.0361 81.7012 17.3506ZM83.8193 17.1484V17.3506C83.8193 17.7783 83.8633 18.1826 83.9512 18.5635C84.0391 18.9443 84.1768 19.2783 84.3643 19.5654C84.5518 19.8525 84.792 20.0781 85.085 20.2422C85.3779 20.4062 85.7266 20.4883 86.1309 20.4883C86.5234 20.4883 86.8633 20.4062 87.1504 20.2422C87.4434 20.0781 87.6836 19.8525 87.8711 19.5654C88.0586 19.2783 88.1963 18.9443 88.2842 18.5635C88.3779 18.1826 88.4248 17.7783 88.4248 17.3506V17.1484C88.4248 16.7266 88.3779 16.3281 88.2842 15.9531C88.1963 15.5723 88.0557 15.2354 87.8623 14.9424C87.6748 14.6494 87.4346 14.4209 87.1416 14.2568C86.8545 14.0869 86.5117 14.002 86.1133 14.002C85.7148 14.002 85.3691 14.0869 85.0762 14.2568C84.7891 14.4209 84.5518 14.6494 84.3643 14.9424C84.1768 15.2354 84.0391 15.5723 83.9512 15.9531C83.8633 16.3281 83.8193 16.7266 83.8193 17.1484ZM94.4453 14.3008V22H92.3271V12.4902H94.3486L94.4453 14.3008ZM97.3545 12.4287L97.3369 14.3975C97.208 14.374 97.0674 14.3564 96.915 14.3447C96.7686 14.333 96.6221 14.3271 96.4756 14.3271C96.1123 14.3271 95.793 14.3799 95.5176 14.4854C95.2422 14.585 95.0107 14.7314 94.8232 14.9248C94.6416 15.1123 94.501 15.3408 94.4014 15.6104C94.3018 15.8799 94.2432 16.1816 94.2256 16.5156L93.7422 16.5508C93.7422 15.9531 93.8008 15.3994 93.918 14.8896C94.0352 14.3799 94.2109 13.9316 94.4453 13.5449C94.6855 13.1582 94.9844 12.8564 95.3418 12.6396C95.7051 12.4229 96.124 12.3145 96.5986 12.3145C96.7275 12.3145 96.8652 12.3262 97.0117 12.3496C97.1641 12.373 97.2783 12.3994 97.3545 12.4287ZM104.307 20.0312V8.5H106.434V22H104.509L104.307 20.0312ZM98.1191 17.3506V17.166C98.1191 16.4453 98.2041 15.7891 98.374 15.1973C98.5439 14.5996 98.79 14.0869 99.1123 13.6592C99.4346 13.2256 99.8271 12.8945 100.29 12.666C100.753 12.4316 101.274 12.3145 101.854 12.3145C102.429 12.3145 102.933 12.4258 103.366 12.6484C103.8 12.8711 104.169 13.1904 104.474 13.6064C104.778 14.0166 105.021 14.5088 105.203 15.083C105.385 15.6514 105.514 16.2842 105.59 16.9814V17.5703C105.514 18.25 105.385 18.8711 105.203 19.4336C105.021 19.9961 104.778 20.4824 104.474 20.8926C104.169 21.3027 103.797 21.6191 103.357 21.8418C102.924 22.0645 102.417 22.1758 101.837 22.1758C101.263 22.1758 100.744 22.0557 100.281 21.8154C99.8242 21.5752 99.4346 21.2383 99.1123 20.8047C98.79 20.3711 98.5439 19.8613 98.374 19.2754C98.2041 18.6836 98.1191 18.042 98.1191 17.3506ZM100.237 17.166V17.3506C100.237 17.7842 100.275 18.1885 100.352 18.5635C100.434 18.9385 100.56 19.2695 100.729 19.5566C100.899 19.8379 101.119 20.0605 101.389 20.2246C101.664 20.3828 101.992 20.4619 102.373 20.4619C102.854 20.4619 103.249 20.3564 103.56 20.1455C103.87 19.9346 104.113 19.6504 104.289 19.293C104.471 18.9297 104.594 18.5254 104.658 18.0801V16.4893C104.623 16.1436 104.55 15.8213 104.438 15.5225C104.333 15.2236 104.189 14.9629 104.008 14.7402C103.826 14.5117 103.601 14.3359 103.331 14.2129C103.067 14.084 102.754 14.0195 102.391 14.0195C102.004 14.0195 101.676 14.1016 101.406 14.2656C101.137 14.4297 100.914 14.6553 100.738 14.9424C100.568 15.2295 100.442 15.5635 100.36 15.9443C100.278 16.3252 100.237 16.7324 100.237 17.166Z" fill="#5865F2"/>
<path d="M142 0H144V-2H142V0ZM142 32V34H144V32H142ZM32 2H142V-2H32V2ZM140 0V32H144V0H140ZM142 30H32V34H142V30Z" fill="#5865F2" mask="url(#path-3-inside-1_133_615)"/>
</svg>
