<svg width="32" height="32" viewBox="0 0 32 32" fill="none" xmlns="http://www.w3.org/2000/svg">
<rect width="32" height="32" fill="url(#paint0_linear_103_1885)"/>
<path fill-rule="evenodd" clip-rule="evenodd" d="M15.9997 5.33325C13.1028 5.33325 12.7395 5.34553 11.6018 5.39744C10.4665 5.44923 9.69108 5.62956 9.0126 5.89326C8.31117 6.16581 7.71632 6.53054 7.12329 7.12353C6.5303 7.71656 6.16557 8.31142 5.89302 9.01285C5.62931 9.69133 5.44898 10.4667 5.3972 11.6021C5.34529 12.7398 5.33301 13.103 5.33301 15.9999C5.33301 18.8968 5.34529 19.2601 5.3972 20.3978C5.44898 21.5331 5.62931 22.3085 5.89302 22.987C6.16557 23.6884 6.5303 24.2833 7.12329 24.8763C7.71632 25.4693 8.31117 25.834 9.0126 26.1066C9.69108 26.3703 10.4665 26.5506 11.6018 26.6024C12.7395 26.6543 13.1028 26.6666 15.9997 26.6666C18.8966 26.6666 19.2598 26.6543 20.3975 26.6024C21.5329 26.5506 22.3083 26.3703 22.9867 26.1066C23.6882 25.834 24.283 25.4693 24.8761 24.8763C25.4691 24.2833 25.8338 23.6884 26.1064 22.987C26.37 22.3085 26.5504 21.5331 26.6022 20.3978C26.6541 19.2601 26.6663 18.8968 26.6663 15.9999C26.6663 13.103 26.6541 12.7398 26.6022 11.6021C26.5504 10.4667 26.37 9.69133 26.1064 9.01285C25.8338 8.31142 25.4691 7.71656 24.8761 7.12353C24.283 6.53054 23.6882 6.16581 22.9867 5.89326C22.3083 5.62956 21.5329 5.44923 20.3975 5.39744C19.2598 5.34553 18.8966 5.33325 15.9997 5.33325ZM15.9997 7.25517C18.8478 7.25517 19.1852 7.26605 20.3099 7.31737C21.3499 7.36479 21.9147 7.53856 22.2906 7.68464C22.7885 7.87814 23.1438 8.10928 23.517 8.48256C23.8903 8.8558 24.1215 9.21113 24.315 9.70902C24.461 10.0849 24.6348 10.6497 24.6822 11.6897C24.7335 12.8144 24.7444 13.1518 24.7444 15.9999C24.7444 18.848 24.7335 19.1854 24.6822 20.3102C24.6348 21.3502 24.461 21.9149 24.315 22.2908C24.1215 22.7887 23.8903 23.144 23.517 23.5173C23.1438 23.8906 22.7885 24.1217 22.2906 24.3152C21.9147 24.4613 21.3499 24.635 20.3099 24.6825C19.1853 24.7338 18.848 24.7447 15.9997 24.7447C13.1513 24.7447 12.8141 24.7338 11.6894 24.6825C10.6494 24.635 10.0846 24.4613 9.70878 24.3152C9.21089 24.1217 8.85556 23.8906 8.48232 23.5173C8.10908 23.144 7.8779 22.7887 7.6844 22.2908C7.53832 21.9149 7.36455 21.3502 7.31713 20.3102C7.26581 19.1854 7.25493 18.848 7.25493 15.9999C7.25493 13.1518 7.26581 12.8144 7.31713 11.6897C7.36455 10.6497 7.53832 10.0849 7.6844 9.70902C7.8779 9.21113 8.10904 8.8558 8.48232 8.48256C8.85556 8.10928 9.21089 7.87814 9.70878 7.68464C10.0846 7.53856 10.6494 7.36479 11.6894 7.31737C12.8142 7.26605 13.1516 7.25517 15.9997 7.25517Z" fill="white"/>
<path fill-rule="evenodd" clip-rule="evenodd" d="M16 19.5555C14.0362 19.5555 12.4444 17.9636 12.4444 16C12.4444 14.0362 14.0362 12.4444 16 12.4444C17.9636 12.4444 19.5555 14.0362 19.5555 16C19.5555 17.9636 17.9636 19.5555 16 19.5555ZM16 10.5225C12.9748 10.5225 10.5225 12.9748 10.5225 16C10.5225 19.0251 12.9748 21.4774 16 21.4774C19.0251 21.4774 21.4774 19.0251 21.4774 16C21.4774 12.9748 19.0251 10.5225 16 10.5225Z" fill="white"/>
<path fill-rule="evenodd" clip-rule="evenodd" d="M22.9741 10.3061C22.9741 11.0131 22.401 11.5861 21.694 11.5861C20.9872 11.5861 20.4141 11.0131 20.4141 10.3061C20.4141 9.59921 20.9872 9.02612 21.694 9.02612C22.401 9.02612 22.9741 9.59921 22.9741 10.3061Z" fill="white"/>
<defs>
<linearGradient id="paint0_linear_103_1885" x1="16" y1="48" x2="48" y2="16" gradientUnits="userSpaceOnUse">
<stop stop-color="#FFD522"/>
<stop offset="0.497382" stop-color="#F1000B"/>
<stop offset="1" stop-color="#B900B3"/>
</linearGradient>
</defs>
</svg>
