<svg width="21" height="19" viewBox="0 0 21 19" fill="none" xmlns="http://www.w3.org/2000/svg">
<path d="M18.4993 10.5717L10.9993 17.9997L3.49932 10.5717C3.00463 10.0903 2.61497 9.5117 2.35487 8.87232C2.09478 8.23295 1.96989 7.54664 1.98806 6.85662C2.00624 6.1666 2.16709 5.48782 2.46048 4.86303C2.75388 4.23823 3.17346 3.68094 3.69281 3.22627C4.21216 2.77159 4.82003 2.42938 5.47814 2.22117C6.13624 2.01296 6.83033 1.94327 7.51669 2.01649C8.20306 2.08971 8.86682 2.30425 9.4662 2.64659C10.0656 2.98894 10.5876 3.45169 10.9993 4.00569C11.4129 3.45571 11.9355 2.99701 12.5344 2.65829C13.1334 2.31958 13.7958 2.10814 14.4803 2.03721C15.1647 1.96628 15.8564 2.03739 16.5121 2.24608C17.1678 2.45477 17.7734 2.79656 18.2909 3.25005C18.8084 3.70354 19.2268 4.25897 19.5197 4.88158C19.8127 5.50419 19.9741 6.18057 19.9936 6.8684C20.0132 7.55622 19.8906 8.24068 19.6335 8.87894C19.3763 9.5172 18.9902 10.0955 18.4993 10.5777" stroke="#0F172A" stroke-width="2" stroke-linecap="round" stroke-linejoin="round"/>
</svg>
