<!DOCTYPE svg PUBLIC "-//W3C//DTD SVG 1.1//EN" "http://www.w3.org/Graphics/SVG/1.1/DTD/svg11.dtd">
<!-- Uploaded to: SVG Repo, www.svgrepo.com, Transformed by: SVG Repo Mixer Tools -->
<svg width="100px" height="100px" viewBox="0 0 512.00 512.00" xmlns="http://www.w3.org/2000/svg" fill="#ffffff" stroke="#ffffff">
<g id="SVGRepo_bgCarrier" stroke-width="0"/>
<g id="SVGRepo_tracerCarrier" stroke-linecap="round" stroke-linejoin="round"/>
<g id="SVGRepo_iconCarrier"> <path fill="var(--ci-primary-color, #ffffff)" d="M336,72V40H40V472H472V184H440v25.68l-64.769-64.77L306,214.142l-100-100-134,134V72Zm39.231,118.166L440,254.935v93.207L328.628,236.769ZM206,159.4l234,234V440H72V293.4Z" class="ci-primary"/> <polygon fill="var(--ci-primary-color, #ffffff)" points="448 16 416 16 416 64 368 64 368 96 416 96 416 144 448 144 448 96 496 96 496 64 448 64 448 16" class="ci-primary"/> </g>
</svg>