<svg width="142" height="32" viewBox="0 0 142 32" fill="none" xmlns="http://www.w3.org/2000/svg">
<rect width="32" height="32" fill="url(#paint0_linear_133_617)"/>
<path fill-rule="evenodd" clip-rule="evenodd" d="M15.9997 5.33301C13.1028 5.33301 12.7395 5.34529 11.6018 5.3972C10.4665 5.44898 9.69108 5.62931 9.0126 5.89302C8.31117 6.16557 7.71632 6.5303 7.12329 7.12329C6.5303 7.71632 6.16557 8.31117 5.89302 9.0126C5.62931 9.69108 5.44898 10.4665 5.3972 11.6018C5.34529 12.7395 5.33301 13.1028 5.33301 15.9997C5.33301 18.8966 5.34529 19.2598 5.3972 20.3975C5.44898 21.5329 5.62931 22.3083 5.89302 22.9867C6.16557 23.6882 6.5303 24.283 7.12329 24.8761C7.71632 25.4691 8.31117 25.8338 9.0126 26.1064C9.69108 26.37 10.4665 26.5504 11.6018 26.6022C12.7395 26.6541 13.1028 26.6663 15.9997 26.6663C18.8966 26.6663 19.2598 26.6541 20.3975 26.6022C21.5329 26.5504 22.3083 26.37 22.9867 26.1064C23.6882 25.8338 24.283 25.4691 24.8761 24.8761C25.4691 24.283 25.8338 23.6882 26.1064 22.9867C26.37 22.3083 26.5504 21.5329 26.6022 20.3975C26.6541 19.2598 26.6663 18.8966 26.6663 15.9997C26.6663 13.1028 26.6541 12.7395 26.6022 11.6018C26.5504 10.4665 26.37 9.69108 26.1064 9.0126C25.8338 8.31117 25.4691 7.71632 24.8761 7.12329C24.283 6.5303 23.6882 6.16557 22.9867 5.89302C22.3083 5.62931 21.5329 5.44898 20.3975 5.3972C19.2598 5.34529 18.8966 5.33301 15.9997 5.33301ZM15.9997 7.25493C18.8478 7.25493 19.1852 7.26581 20.3099 7.31713C21.3499 7.36455 21.9147 7.53832 22.2906 7.6844C22.7885 7.8779 23.1438 8.10904 23.517 8.48232C23.8903 8.85556 24.1215 9.21089 24.315 9.70878C24.461 10.0846 24.6348 10.6494 24.6822 11.6894C24.7335 12.8142 24.7444 13.1516 24.7444 15.9997C24.7444 18.8478 24.7335 19.1852 24.6822 20.3099C24.6348 21.3499 24.461 21.9147 24.315 22.2906C24.1215 22.7885 23.8903 23.1438 23.517 23.517C23.1438 23.8903 22.7885 24.1215 22.2906 24.315C21.9147 24.461 21.3499 24.6348 20.3099 24.6822C19.1853 24.7335 18.848 24.7444 15.9997 24.7444C13.1513 24.7444 12.8141 24.7335 11.6894 24.6822C10.6494 24.6348 10.0846 24.461 9.70878 24.315C9.21089 24.1215 8.85556 23.8903 8.48232 23.517C8.10908 23.1438 7.8779 22.7885 7.6844 22.2906C7.53832 21.9147 7.36455 21.3499 7.31713 20.3099C7.26581 19.1852 7.25493 18.8478 7.25493 15.9997C7.25493 13.1516 7.26581 12.8142 7.31713 11.6894C7.36455 10.6494 7.53832 10.0846 7.6844 9.70878C7.8779 9.21089 8.10904 8.85556 8.48232 8.48232C8.85556 8.10904 9.21089 7.8779 9.70878 7.6844C10.0846 7.53832 10.6494 7.36455 11.6894 7.31713C12.8142 7.26581 13.1516 7.25493 15.9997 7.25493Z" fill="white"/>
<path fill-rule="evenodd" clip-rule="evenodd" d="M16 19.5555C14.0362 19.5555 12.4444 17.9636 12.4444 16C12.4444 14.0362 14.0362 12.4444 16 12.4444C17.9636 12.4444 19.5555 14.0362 19.5555 16C19.5555 17.9636 17.9636 19.5555 16 19.5555ZM16 10.5225C12.9748 10.5225 10.5225 12.9748 10.5225 16C10.5225 19.0251 12.9748 21.4774 16 21.4774C19.0251 21.4774 21.4774 19.0251 21.4774 16C21.4774 12.9748 19.0251 10.5225 16 10.5225Z" fill="white"/>
<path fill-rule="evenodd" clip-rule="evenodd" d="M22.9741 10.3059C22.9741 11.0128 22.401 11.5859 21.694 11.5859C20.9872 11.5859 20.4141 11.0128 20.4141 10.3059C20.4141 9.59897 20.9872 9.02588 21.694 9.02588C22.401 9.02588 22.9741 9.59897 22.9741 10.3059Z" fill="white"/>
<mask id="path-5-inside-1_133_617" fill="white">
<path d="M32 0H142V32H32V0Z"/>
</mask>
<path d="M32 0H142V32H32V0Z" fill="white"/>
<path d="M49.6562 9.20312V22H47.4502V9.20312H49.6562ZM54.2881 14.5205V22H52.1699V12.4902H54.165L54.2881 14.5205ZM53.9102 16.8936L53.2246 16.8848C53.2305 16.2109 53.3242 15.5928 53.5059 15.0303C53.6934 14.4678 53.9512 13.9844 54.2793 13.5801C54.6133 13.1758 55.0117 12.8652 55.4746 12.6484C55.9375 12.4258 56.4531 12.3145 57.0215 12.3145C57.4785 12.3145 57.8916 12.3789 58.2607 12.5078C58.6357 12.6309 58.9551 12.833 59.2188 13.1143C59.4883 13.3955 59.6934 13.7617 59.834 14.2129C59.9746 14.6582 60.0449 15.2061 60.0449 15.8564V22H57.918V15.8477C57.918 15.3906 57.8506 15.0303 57.7158 14.7666C57.5869 14.4971 57.3965 14.3066 57.1445 14.1953C56.8984 14.0781 56.5908 14.0195 56.2217 14.0195C55.8584 14.0195 55.5332 14.0957 55.2461 14.248C54.959 14.4004 54.7158 14.6084 54.5166 14.8721C54.3232 15.1357 54.1738 15.4404 54.0684 15.7861C53.9629 16.1318 53.9102 16.501 53.9102 16.8936ZM67.542 19.4248C67.542 19.2139 67.4893 19.0234 67.3838 18.8535C67.2783 18.6777 67.0762 18.5195 66.7773 18.3789C66.4844 18.2383 66.0508 18.1094 65.4766 17.9922C64.9727 17.8809 64.5098 17.749 64.0879 17.5967C63.6719 17.4385 63.3145 17.248 63.0156 17.0254C62.7168 16.8027 62.4854 16.5391 62.3213 16.2344C62.1572 15.9297 62.0752 15.5781 62.0752 15.1797C62.0752 14.793 62.1602 14.4268 62.3301 14.0811C62.5 13.7354 62.7432 13.4307 63.0596 13.167C63.376 12.9033 63.7598 12.6953 64.2109 12.543C64.668 12.3906 65.1777 12.3145 65.7402 12.3145C66.5371 12.3145 67.2197 12.4492 67.7881 12.7188C68.3623 12.9824 68.8018 13.3428 69.1064 13.7998C69.4111 14.251 69.5635 14.7607 69.5635 15.3291H67.4453C67.4453 15.0771 67.3809 14.8428 67.252 14.626C67.1289 14.4033 66.9414 14.2246 66.6895 14.0898C66.4375 13.9492 66.1211 13.8789 65.7402 13.8789C65.377 13.8789 65.0752 13.9375 64.835 14.0547C64.6006 14.166 64.4248 14.3125 64.3076 14.4941C64.1963 14.6758 64.1406 14.875 64.1406 15.0918C64.1406 15.25 64.1699 15.3936 64.2285 15.5225C64.293 15.6455 64.3984 15.7598 64.5449 15.8652C64.6914 15.9648 64.8906 16.0586 65.1426 16.1465C65.4004 16.2344 65.7227 16.3193 66.1094 16.4014C66.8359 16.5537 67.46 16.75 67.9814 16.9902C68.5088 17.2246 68.9131 17.5293 69.1943 17.9043C69.4756 18.2734 69.6162 18.7422 69.6162 19.3105C69.6162 19.7324 69.5254 20.1191 69.3438 20.4707C69.168 20.8164 68.9102 21.1182 68.5703 21.376C68.2305 21.6279 67.8232 21.8242 67.3486 21.9648C66.8799 22.1055 66.3525 22.1758 65.7666 22.1758C64.9053 22.1758 64.1758 22.0234 63.5781 21.7188C62.9805 21.4082 62.5264 21.0127 62.2158 20.5322C61.9111 20.0459 61.7588 19.542 61.7588 19.0205H63.8066C63.8301 19.4131 63.9385 19.7266 64.1318 19.9609C64.3311 20.1895 64.5771 20.3564 64.8701 20.4619C65.1689 20.5615 65.4766 20.6113 65.793 20.6113C66.1738 20.6113 66.4932 20.5615 66.751 20.4619C67.0088 20.3564 67.2051 20.2158 67.3398 20.04C67.4746 19.8584 67.542 19.6533 67.542 19.4248ZM75.8301 12.4902V14.0371H70.4688V12.4902H75.8301ZM72.0156 10.1611H74.1338V19.3721C74.1338 19.665 74.1748 19.8906 74.2568 20.0488C74.3447 20.2012 74.4648 20.3037 74.6172 20.3564C74.7695 20.4092 74.9482 20.4355 75.1533 20.4355C75.2998 20.4355 75.4404 20.4268 75.5752 20.4092C75.71 20.3916 75.8184 20.374 75.9004 20.3564L75.9092 21.9736C75.7334 22.0264 75.5283 22.0732 75.2939 22.1143C75.0654 22.1553 74.8018 22.1758 74.5029 22.1758C74.0166 22.1758 73.5859 22.0908 73.2109 21.9209C72.8359 21.7451 72.543 21.4609 72.332 21.0684C72.1211 20.6758 72.0156 20.1543 72.0156 19.5039V10.1611ZM82.8262 20.0928V15.5576C82.8262 15.2178 82.7646 14.9248 82.6416 14.6787C82.5186 14.4326 82.3311 14.2422 82.0791 14.1074C81.833 13.9727 81.5225 13.9053 81.1475 13.9053C80.8018 13.9053 80.5029 13.9639 80.251 14.0811C79.999 14.1982 79.8027 14.3564 79.6621 14.5557C79.5215 14.7549 79.4512 14.9805 79.4512 15.2324H77.3418C77.3418 14.8574 77.4326 14.4941 77.6143 14.1426C77.7959 13.791 78.0596 13.4775 78.4053 13.2021C78.751 12.9268 79.1641 12.71 79.6445 12.5518C80.125 12.3936 80.6641 12.3145 81.2617 12.3145C81.9766 12.3145 82.6094 12.4346 83.1602 12.6748C83.7168 12.915 84.1533 13.2783 84.4697 13.7646C84.792 14.2451 84.9531 14.8486 84.9531 15.5752V19.8027C84.9531 20.2363 84.9824 20.626 85.041 20.9717C85.1055 21.3115 85.1963 21.6074 85.3135 21.8594V22H83.1426C83.043 21.7715 82.9639 21.4814 82.9053 21.1299C82.8525 20.7725 82.8262 20.4268 82.8262 20.0928ZM83.1338 16.2168L83.1514 17.5264H81.6309C81.2383 17.5264 80.8926 17.5645 80.5938 17.6406C80.2949 17.7109 80.0459 17.8164 79.8467 17.957C79.6475 18.0977 79.498 18.2676 79.3984 18.4668C79.2988 18.666 79.249 18.8916 79.249 19.1436C79.249 19.3955 79.3076 19.627 79.4248 19.8379C79.542 20.043 79.7119 20.2041 79.9346 20.3213C80.1631 20.4385 80.4385 20.4971 80.7607 20.4971C81.1943 20.4971 81.5723 20.4092 81.8945 20.2334C82.2227 20.0518 82.4805 19.832 82.668 19.5742C82.8555 19.3105 82.9551 19.0615 82.9668 18.8271L83.6523 19.7676C83.582 20.0078 83.4619 20.2656 83.292 20.541C83.1221 20.8164 82.8994 21.0801 82.624 21.332C82.3545 21.5781 82.0293 21.7803 81.6484 21.9385C81.2734 22.0967 80.8398 22.1758 80.3477 22.1758C79.7266 22.1758 79.1729 22.0527 78.6865 21.8066C78.2002 21.5547 77.8193 21.2178 77.5439 20.7959C77.2686 20.3682 77.1309 19.8848 77.1309 19.3457C77.1309 18.8418 77.2246 18.3965 77.4121 18.0098C77.6055 17.6172 77.8867 17.2891 78.2559 17.0254C78.6309 16.7617 79.0879 16.5625 79.627 16.4277C80.166 16.2871 80.7812 16.2168 81.4727 16.2168H83.1338ZM93.2588 12.4902H95.1836V21.7363C95.1836 22.5918 95.002 23.3184 94.6387 23.916C94.2754 24.5137 93.7686 24.9678 93.1182 25.2783C92.4678 25.5947 91.7148 25.7529 90.8594 25.7529C90.4961 25.7529 90.0918 25.7002 89.6465 25.5947C89.207 25.4893 88.7793 25.3193 88.3633 25.085C87.9531 24.8564 87.6104 24.5547 87.335 24.1797L88.3281 22.9316C88.668 23.3359 89.043 23.6318 89.4531 23.8193C89.8633 24.0068 90.2939 24.1006 90.7451 24.1006C91.2314 24.1006 91.6445 24.0098 91.9844 23.8281C92.3301 23.6523 92.5967 23.3916 92.7842 23.0459C92.9717 22.7002 93.0654 22.2783 93.0654 21.7803V14.6436L93.2588 12.4902ZM86.7988 17.3506V17.166C86.7988 16.4453 86.8867 15.7891 87.0625 15.1973C87.2383 14.5996 87.4902 14.0869 87.8184 13.6592C88.1465 13.2256 88.5449 12.8945 89.0137 12.666C89.4824 12.4316 90.0127 12.3145 90.6045 12.3145C91.2197 12.3145 91.7441 12.4258 92.1777 12.6484C92.6172 12.8711 92.9834 13.1904 93.2764 13.6064C93.5693 14.0166 93.7979 14.5088 93.9619 15.083C94.1318 15.6514 94.2578 16.2842 94.3398 16.9814V17.5703C94.2637 18.25 94.1348 18.8711 93.9531 19.4336C93.7715 19.9961 93.5312 20.4824 93.2324 20.8926C92.9336 21.3027 92.5645 21.6191 92.125 21.8418C91.6914 22.0645 91.1787 22.1758 90.5869 22.1758C90.0068 22.1758 89.4824 22.0557 89.0137 21.8154C88.5508 21.5752 88.1523 21.2383 87.8184 20.8047C87.4902 20.3711 87.2383 19.8613 87.0625 19.2754C86.8867 18.6836 86.7988 18.042 86.7988 17.3506ZM88.917 17.166V17.3506C88.917 17.7842 88.958 18.1885 89.04 18.5635C89.1279 18.9385 89.2598 19.2695 89.4355 19.5566C89.6172 19.8379 89.8457 20.0605 90.1211 20.2246C90.4023 20.3828 90.7334 20.4619 91.1143 20.4619C91.6123 20.4619 92.0195 20.3564 92.3359 20.1455C92.6582 19.9346 92.9043 19.6504 93.0742 19.293C93.25 18.9297 93.373 18.5254 93.4434 18.0801V16.4893C93.4082 16.1436 93.335 15.8213 93.2236 15.5225C93.1182 15.2236 92.9746 14.9629 92.793 14.7402C92.6113 14.5117 92.3828 14.3359 92.1074 14.2129C91.832 14.084 91.5068 14.0195 91.1318 14.0195C90.751 14.0195 90.4199 14.1016 90.1387 14.2656C89.8574 14.4297 89.626 14.6553 89.4443 14.9424C89.2686 15.2295 89.1367 15.5635 89.0488 15.9443C88.9609 16.3252 88.917 16.7324 88.917 17.166ZM99.5078 14.3008V22H97.3896V12.4902H99.4111L99.5078 14.3008ZM102.417 12.4287L102.399 14.3975C102.271 14.374 102.13 14.3564 101.978 14.3447C101.831 14.333 101.685 14.3271 101.538 14.3271C101.175 14.3271 100.855 14.3799 100.58 14.4854C100.305 14.585 100.073 14.7314 99.8857 14.9248C99.7041 15.1123 99.5635 15.3408 99.4639 15.6104C99.3643 15.8799 99.3057 16.1816 99.2881 16.5156L98.8047 16.5508C98.8047 15.9531 98.8633 15.3994 98.9805 14.8896C99.0977 14.3799 99.2734 13.9316 99.5078 13.5449C99.748 13.1582 100.047 12.8564 100.404 12.6396C100.768 12.4229 101.187 12.3145 101.661 12.3145C101.79 12.3145 101.928 12.3262 102.074 12.3496C102.227 12.373 102.341 12.3994 102.417 12.4287ZM108.789 20.0928V15.5576C108.789 15.2178 108.728 14.9248 108.604 14.6787C108.481 14.4326 108.294 14.2422 108.042 14.1074C107.796 13.9727 107.485 13.9053 107.11 13.9053C106.765 13.9053 106.466 13.9639 106.214 14.0811C105.962 14.1982 105.766 14.3564 105.625 14.5557C105.484 14.7549 105.414 14.9805 105.414 15.2324H103.305C103.305 14.8574 103.396 14.4941 103.577 14.1426C103.759 13.791 104.022 13.4775 104.368 13.2021C104.714 12.9268 105.127 12.71 105.607 12.5518C106.088 12.3936 106.627 12.3145 107.225 12.3145C107.939 12.3145 108.572 12.4346 109.123 12.6748C109.68 12.915 110.116 13.2783 110.433 13.7646C110.755 14.2451 110.916 14.8486 110.916 15.5752V19.8027C110.916 20.2363 110.945 20.626 111.004 20.9717C111.068 21.3115 111.159 21.6074 111.276 21.8594V22H109.105C109.006 21.7715 108.927 21.4814 108.868 21.1299C108.815 20.7725 108.789 20.4268 108.789 20.0928ZM109.097 16.2168L109.114 17.5264H107.594C107.201 17.5264 106.855 17.5645 106.557 17.6406C106.258 17.7109 106.009 17.8164 105.81 17.957C105.61 18.0977 105.461 18.2676 105.361 18.4668C105.262 18.666 105.212 18.8916 105.212 19.1436C105.212 19.3955 105.271 19.627 105.388 19.8379C105.505 20.043 105.675 20.2041 105.897 20.3213C106.126 20.4385 106.401 20.4971 106.724 20.4971C107.157 20.4971 107.535 20.4092 107.857 20.2334C108.186 20.0518 108.443 19.832 108.631 19.5742C108.818 19.3105 108.918 19.0615 108.93 18.8271L109.615 19.7676C109.545 20.0078 109.425 20.2656 109.255 20.541C109.085 20.8164 108.862 21.0801 108.587 21.332C108.317 21.5781 107.992 21.7803 107.611 21.9385C107.236 22.0967 106.803 22.1758 106.311 22.1758C105.689 22.1758 105.136 22.0527 104.649 21.8066C104.163 21.5547 103.782 21.2178 103.507 20.7959C103.231 20.3682 103.094 19.8848 103.094 19.3457C103.094 18.8418 103.188 18.3965 103.375 18.0098C103.568 17.6172 103.85 17.2891 104.219 17.0254C104.594 16.7617 105.051 16.5625 105.59 16.4277C106.129 16.2871 106.744 16.2168 107.436 16.2168H109.097ZM115.249 14.4238V22H113.131V12.4902H115.126L115.249 14.4238ZM114.906 16.8936L114.186 16.8848C114.186 16.2285 114.268 15.6221 114.432 15.0654C114.596 14.5088 114.836 14.0254 115.152 13.6152C115.469 13.1992 115.861 12.8799 116.33 12.6572C116.805 12.4287 117.353 12.3145 117.974 12.3145C118.407 12.3145 118.803 12.3789 119.16 12.5078C119.523 12.6309 119.837 12.8271 120.101 13.0967C120.37 13.3662 120.575 13.7119 120.716 14.1338C120.862 14.5557 120.936 15.0654 120.936 15.6631V22H118.817V15.8477C118.817 15.3848 118.747 15.0215 118.606 14.7578C118.472 14.4941 118.275 14.3066 118.018 14.1953C117.766 14.0781 117.464 14.0195 117.112 14.0195C116.714 14.0195 116.374 14.0957 116.093 14.248C115.817 14.4004 115.592 14.6084 115.416 14.8721C115.24 15.1357 115.111 15.4404 115.029 15.7861C114.947 16.1318 114.906 16.501 114.906 16.8936ZM120.804 16.3311L119.811 16.5508C119.811 15.9766 119.89 15.4346 120.048 14.9248C120.212 14.4092 120.449 13.958 120.76 13.5713C121.076 13.1787 121.466 12.8711 121.929 12.6484C122.392 12.4258 122.922 12.3145 123.52 12.3145C124.006 12.3145 124.439 12.3818 124.82 12.5166C125.207 12.6455 125.535 12.8506 125.805 13.1318C126.074 13.4131 126.279 13.7793 126.42 14.2305C126.561 14.6758 126.631 15.2148 126.631 15.8477V22H124.504V15.8389C124.504 15.3584 124.434 14.9863 124.293 14.7227C124.158 14.459 123.965 14.2773 123.713 14.1777C123.461 14.0723 123.159 14.0195 122.808 14.0195C122.479 14.0195 122.189 14.0811 121.938 14.2041C121.691 14.3213 121.483 14.4883 121.313 14.7051C121.144 14.916 121.015 15.1592 120.927 15.4346C120.845 15.71 120.804 16.0088 120.804 16.3311Z" fill="url(#paint1_linear_133_617)"/>
<path d="M142 0H144V-2H142V0ZM142 32V34H144V32H142ZM32 2H142V-2H32V2ZM140 0V32H144V0H140ZM142 30H32V34H142V30Z" fill="url(#paint2_linear_133_617)" mask="url(#path-5-inside-1_133_617)"/>
<defs>
<linearGradient id="paint0_linear_133_617" x1="16" y1="48" x2="48" y2="16" gradientUnits="userSpaceOnUse">
<stop stop-color="#FFD522"/>
<stop offset="0.497382" stop-color="#F1000B"/>
<stop offset="1" stop-color="#B900B3"/>
</linearGradient>
<linearGradient id="paint1_linear_133_617" x1="87" y1="36.5" x2="97.0941" y2="-2.91493" gradientUnits="userSpaceOnUse">
<stop stop-color="#FFD522"/>
<stop offset="0.497382" stop-color="#F1000B"/>
<stop offset="1" stop-color="#B900B3"/>
</linearGradient>
<linearGradient id="paint2_linear_133_617" x1="87" y1="48" x2="104.165" y2="-11.0064" gradientUnits="userSpaceOnUse">
<stop stop-color="#FFD522"/>
<stop offset="0.497382" stop-color="#F1000B"/>
<stop offset="1" stop-color="#B900B3"/>
</linearGradient>
</defs>
</svg>
