<svg width="178" height="31" viewBox="0 0 178 31" fill="none" xmlns="http://www.w3.org/2000/svg">
<path d="M14.6094 20.625V24H3.17188V20.625H14.6094ZM4.46875 1.25V24H0.171875V1.25H4.46875ZM89.0312 24H84.125L84.1562 20.625H89.0312C90.3542 20.625 91.4635 20.3333 92.3594 19.75C93.2552 19.1562 93.9323 18.3073 94.3906 17.2031C94.849 16.0885 95.0781 14.7552 95.0781 13.2031V12.0312C95.0781 10.8333 94.9479 9.77604 94.6875 8.85938C94.4271 7.94271 94.0417 7.17188 93.5312 6.54688C93.0312 5.92188 92.4115 5.44792 91.6719 5.125C90.9323 4.80208 90.0833 4.64062 89.125 4.64062H84.0312V1.25H89.125C90.6458 1.25 92.0312 1.50521 93.2812 2.01562C94.5417 2.52604 95.6302 3.26042 96.5469 4.21875C97.474 5.16667 98.1823 6.30208 98.6719 7.625C99.1719 8.94792 99.4219 10.4271 99.4219 12.0625V13.2031C99.4219 14.8281 99.1719 16.3073 98.6719 17.6406C98.1823 18.9635 97.474 20.099 96.5469 21.0469C95.6302 21.9948 94.5365 22.724 93.2656 23.2344C91.9948 23.7448 90.5833 24 89.0312 24ZM86.5312 1.25V24H82.2344V1.25H86.5312Z" fill="#E34E36"/>
<path d="M21.5469 7.09375V24H17.4062V7.09375H21.5469ZM17.125 2.67188C17.125 2.05729 17.3333 1.54688 17.75 1.14062C18.1771 0.734375 18.75 0.53125 19.4688 0.53125C20.1875 0.53125 20.7552 0.734375 21.1719 1.14062C21.599 1.54688 21.8125 2.05729 21.8125 2.67188C21.8125 3.27604 21.599 3.78125 21.1719 4.1875C20.7552 4.59375 20.1875 4.79688 19.4688 4.79688C18.75 4.79688 18.1771 4.59375 17.75 4.1875C17.3333 3.78125 17.125 3.27604 17.125 2.67188ZM33.4844 7.09375V10.0625H23.7969V7.09375H33.4844ZM26.3906 2.9375H30.5312V19.125C30.5312 19.625 30.599 20.0104 30.7344 20.2812C30.8698 20.5521 31.0729 20.7344 31.3438 20.8281C31.6146 20.9219 31.9375 20.9688 32.3125 20.9688C32.5833 20.9688 32.8333 20.9531 33.0625 20.9219C33.2917 20.8906 33.4844 20.8594 33.6406 20.8281L33.6562 23.9219C33.3125 24.0365 32.9219 24.1302 32.4844 24.2031C32.0573 24.276 31.5729 24.3125 31.0312 24.3125C30.1042 24.3125 29.2917 24.1562 28.5938 23.8438C27.8958 23.5208 27.3542 23.0052 26.9688 22.2969C26.5833 21.5781 26.3906 20.6302 26.3906 19.4531V2.9375ZM46.2969 19.9844V7.09375H50.4531V24H46.5469L46.2969 19.9844ZM46.8281 16.4844L48.1094 16.4531C48.1094 17.5885 47.9844 18.6354 47.7344 19.5938C47.4844 20.5521 47.0938 21.3854 46.5625 22.0938C46.0417 22.7917 45.3802 23.3385 44.5781 23.7344C43.776 24.1198 42.8281 24.3125 41.7344 24.3125C40.901 24.3125 40.1406 24.1979 39.4531 23.9688C38.7656 23.7292 38.1719 23.3594 37.6719 22.8594C37.1823 22.349 36.8021 21.6979 36.5312 20.9062C36.2604 20.1042 36.125 19.1406 36.125 18.0156V7.09375H40.25V18.0469C40.25 18.6094 40.3125 19.0781 40.4375 19.4531C40.5729 19.8281 40.7552 20.1354 40.9844 20.375C41.224 20.6042 41.5 20.7708 41.8125 20.875C42.1354 20.9688 42.4792 21.0156 42.8438 21.0156C43.8438 21.0156 44.6302 20.8177 45.2031 20.4219C45.7865 20.0156 46.2031 19.474 46.4531 18.7969C46.7031 18.1094 46.8281 17.3385 46.8281 16.4844ZM58.2188 10.5625V24H54.0938V7.09375H57.9844L58.2188 10.5625ZM57.6094 14.9375H56.3438C56.3438 13.7604 56.4844 12.6771 56.7656 11.6875C57.0573 10.6979 57.4844 9.83854 58.0469 9.10938C58.6094 8.36979 59.3021 7.79688 60.125 7.39062C60.9583 6.98438 61.9219 6.78125 63.0156 6.78125C63.776 6.78125 64.474 6.89583 65.1094 7.125C65.7448 7.34375 66.2917 7.69271 66.75 8.17188C67.2188 8.64062 67.5781 9.25521 67.8281 10.0156C68.0781 10.7656 68.2031 11.6667 68.2031 12.7188V24H64.0781V13.1406C64.0781 12.349 63.9635 11.7292 63.7344 11.2812C63.5156 10.8333 63.1979 10.5208 62.7812 10.3438C62.3646 10.1562 61.8646 10.0625 61.2812 10.0625C60.6354 10.0625 60.0781 10.1927 59.6094 10.4531C59.151 10.7031 58.7708 11.0521 58.4688 11.5C58.1771 11.9479 57.9583 12.4635 57.8125 13.0469C57.6771 13.6302 57.6094 14.2604 57.6094 14.9375ZM67.8906 14.1719L66.1875 14.4844C66.1979 13.4219 66.3438 12.4271 66.625 11.5C66.9062 10.5625 67.3177 9.74479 67.8594 9.04688C68.4115 8.33854 69.0938 7.78646 69.9062 7.39062C70.7292 6.98438 71.6771 6.78125 72.75 6.78125C73.5833 6.78125 74.3333 6.90104 75 7.14062C75.6771 7.36979 76.2552 7.73958 76.7344 8.25C77.2135 8.75 77.5781 9.40104 77.8281 10.2031C78.0885 11.0052 78.2188 11.9844 78.2188 13.1406V24H74.0625V13.125C74.0625 12.3021 73.9479 11.6719 73.7188 11.2344C73.5 10.7969 73.1823 10.4948 72.7656 10.3281C72.349 10.151 71.8594 10.0625 71.2969 10.0625C70.724 10.0625 70.224 10.1719 69.7969 10.3906C69.3802 10.599 69.026 10.8906 68.7344 11.2656C68.4531 11.6406 68.2396 12.0781 68.0938 12.5781C67.9583 13.0677 67.8906 13.599 67.8906 14.1719ZM110.359 24.3125C109.078 24.3125 107.927 24.1042 106.906 23.6875C105.885 23.2708 105.016 22.6927 104.297 21.9531C103.589 21.2031 103.042 20.3333 102.656 19.3438C102.281 18.3438 102.094 17.2708 102.094 16.125V15.5C102.094 14.1979 102.281 13.0156 102.656 11.9531C103.031 10.8802 103.562 9.95833 104.25 9.1875C104.938 8.41667 105.76 7.82292 106.719 7.40625C107.677 6.98958 108.734 6.78125 109.891 6.78125C111.089 6.78125 112.146 6.98438 113.062 7.39062C113.979 7.78646 114.745 8.34896 115.359 9.07812C115.974 9.80729 116.438 10.6823 116.75 11.7031C117.062 12.7135 117.219 13.8333 117.219 15.0625V16.7969H103.969V13.9531H113.156V13.6406C113.135 12.9844 113.01 12.3854 112.781 11.8438C112.552 11.2917 112.198 10.8542 111.719 10.5312C111.24 10.1979 110.62 10.0312 109.859 10.0312C109.245 10.0312 108.708 10.1667 108.25 10.4375C107.802 10.6979 107.427 11.0729 107.125 11.5625C106.833 12.0417 106.615 12.6146 106.469 13.2812C106.323 13.9479 106.25 14.6875 106.25 15.5V16.125C106.25 16.8333 106.344 17.4896 106.531 18.0938C106.729 18.6979 107.016 19.224 107.391 19.6719C107.776 20.1094 108.234 20.4531 108.766 20.7031C109.307 20.9427 109.922 21.0625 110.609 21.0625C111.474 21.0625 112.255 20.8958 112.953 20.5625C113.661 20.2188 114.276 19.7135 114.797 19.0469L116.875 21.2031C116.521 21.724 116.042 22.224 115.438 22.7031C114.844 23.1823 114.125 23.5729 113.281 23.875C112.438 24.1667 111.464 24.3125 110.359 24.3125ZM129.281 19.375C129.281 19.0208 129.188 18.7031 129 18.4219C128.812 18.1406 128.458 17.8854 127.938 17.6562C127.427 17.4167 126.677 17.1927 125.688 16.9844C124.812 16.7969 124.005 16.5625 123.266 16.2812C122.526 16 121.891 15.6615 121.359 15.2656C120.828 14.8594 120.411 14.3854 120.109 13.8438C119.818 13.2917 119.672 12.6562 119.672 11.9375C119.672 11.2396 119.823 10.5833 120.125 9.96875C120.427 9.34375 120.865 8.79688 121.438 8.32812C122.01 7.84896 122.708 7.47396 123.531 7.20312C124.354 6.92188 125.281 6.78125 126.312 6.78125C127.75 6.78125 128.984 7.01562 130.016 7.48438C131.057 7.95312 131.854 8.59896 132.406 9.42188C132.958 10.2344 133.234 11.151 133.234 12.1719H129.109C129.109 11.724 129.005 11.3177 128.797 10.9531C128.599 10.5885 128.292 10.2969 127.875 10.0781C127.458 9.84896 126.932 9.73438 126.297 9.73438C125.724 9.73438 125.24 9.82812 124.844 10.0156C124.458 10.2031 124.167 10.4479 123.969 10.75C123.771 11.0521 123.672 11.3854 123.672 11.75C123.672 12.0208 123.724 12.2656 123.828 12.4844C123.943 12.6927 124.125 12.8854 124.375 13.0625C124.625 13.2396 124.964 13.401 125.391 13.5469C125.828 13.6927 126.365 13.8333 127 13.9688C128.26 14.2188 129.359 14.5521 130.297 14.9688C131.245 15.375 131.984 15.9167 132.516 16.5938C133.047 17.2708 133.312 18.1354 133.312 19.1875C133.312 19.9375 133.151 20.625 132.828 21.25C132.505 21.8646 132.036 22.401 131.422 22.8594C130.807 23.3177 130.073 23.6771 129.219 23.9375C128.365 24.1875 127.401 24.3125 126.328 24.3125C124.776 24.3125 123.464 24.0365 122.391 23.4844C121.318 22.9219 120.505 22.2135 119.953 21.3594C119.401 20.4948 119.125 19.599 119.125 18.6719H123.078C123.109 19.3281 123.286 19.8542 123.609 20.25C123.932 20.6458 124.339 20.9323 124.828 21.1094C125.328 21.276 125.854 21.3594 126.406 21.3594C127.031 21.3594 127.557 21.276 127.984 21.1094C128.411 20.9323 128.734 20.6979 128.953 20.4062C129.172 20.1042 129.281 19.7604 129.281 19.375ZM140.828 7.09375V24H136.688V7.09375H140.828ZM136.406 2.67188C136.406 2.05729 136.615 1.54688 137.031 1.14062C137.458 0.734375 138.031 0.53125 138.75 0.53125C139.469 0.53125 140.036 0.734375 140.453 1.14062C140.88 1.54688 141.094 2.05729 141.094 2.67188C141.094 3.27604 140.88 3.78125 140.453 4.1875C140.036 4.59375 139.469 4.79688 138.75 4.79688C138.031 4.79688 137.458 4.59375 137.031 4.1875C136.615 3.78125 136.406 3.27604 136.406 2.67188ZM155.516 7.09375H159.266V23.4844C159.266 25.0156 158.932 26.3125 158.266 27.375C157.609 28.4479 156.688 29.2604 155.5 29.8125C154.312 30.375 152.932 30.6562 151.359 30.6562C150.682 30.6562 149.948 30.5625 149.156 30.375C148.375 30.1875 147.62 29.8906 146.891 29.4844C146.172 29.0885 145.573 28.5729 145.094 27.9375L146.953 25.5C147.516 26.1562 148.151 26.651 148.859 26.9844C149.568 27.3281 150.333 27.5 151.156 27.5C151.99 27.5 152.698 27.3438 153.281 27.0312C153.875 26.7292 154.328 26.2812 154.641 25.6875C154.964 25.1042 155.125 24.3854 155.125 23.5312V10.9531L155.516 7.09375ZM144.094 15.75V15.4219C144.094 14.1302 144.25 12.9583 144.562 11.9062C144.875 10.8438 145.323 9.93229 145.906 9.17188C146.5 8.41146 147.214 7.82292 148.047 7.40625C148.891 6.98958 149.839 6.78125 150.891 6.78125C152.005 6.78125 152.943 6.98438 153.703 7.39062C154.474 7.79688 155.109 8.375 155.609 9.125C156.12 9.875 156.516 10.7656 156.797 11.7969C157.089 12.8177 157.312 13.9427 157.469 15.1719V16.0625C157.323 17.2604 157.089 18.3594 156.766 19.3594C156.453 20.3594 156.036 21.2344 155.516 21.9844C154.995 22.724 154.349 23.2969 153.578 23.7031C152.807 24.1094 151.901 24.3125 150.859 24.3125C149.818 24.3125 148.88 24.099 148.047 23.6719C147.214 23.2448 146.5 22.6458 145.906 21.875C145.323 21.1042 144.875 20.1979 144.562 19.1562C144.25 18.1146 144.094 16.9792 144.094 15.75ZM148.219 15.4219V15.75C148.219 16.4792 148.292 17.1615 148.438 17.7969C148.583 18.4323 148.807 18.9948 149.109 19.4844C149.411 19.9635 149.792 20.3385 150.25 20.6094C150.708 20.8802 151.255 21.0156 151.891 21.0156C152.745 21.0156 153.443 20.8385 153.984 20.4844C154.536 20.1198 154.953 19.625 155.234 19C155.526 18.3646 155.714 17.651 155.797 16.8594V14.4062C155.745 13.7812 155.63 13.2031 155.453 12.6719C155.286 12.1406 155.052 11.6823 154.75 11.2969C154.448 10.9115 154.062 10.6094 153.594 10.3906C153.125 10.1719 152.568 10.0625 151.922 10.0625C151.297 10.0625 150.75 10.2031 150.281 10.4844C149.812 10.7552 149.427 11.1354 149.125 11.625C148.823 12.1146 148.594 12.6823 148.438 13.3281C148.292 13.974 148.219 14.6719 148.219 15.4219ZM167.031 10.7031V24H162.906V7.09375H166.781L167.031 10.7031ZM166.375 14.9375H165.156C165.167 13.7083 165.333 12.5938 165.656 11.5938C165.979 10.5938 166.432 9.73438 167.016 9.01562C167.609 8.29688 168.312 7.74479 169.125 7.35938C169.938 6.97396 170.844 6.78125 171.844 6.78125C172.656 6.78125 173.391 6.89583 174.047 7.125C174.703 7.35417 175.266 7.71875 175.734 8.21875C176.214 8.71875 176.578 9.375 176.828 10.1875C177.089 10.9896 177.219 11.9792 177.219 13.1562V24H173.062V13.125C173.062 12.3542 172.948 11.7448 172.719 11.2969C172.5 10.849 172.177 10.5312 171.75 10.3438C171.333 10.1562 170.818 10.0625 170.203 10.0625C169.568 10.0625 169.01 10.1927 168.531 10.4531C168.062 10.7031 167.667 11.0521 167.344 11.5C167.031 11.9479 166.792 12.4635 166.625 13.0469C166.458 13.6302 166.375 14.2604 166.375 14.9375Z" fill="white"/>
</svg>
