<svg width="142" height="32" viewBox="0 0 142 32" fill="none" xmlns="http://www.w3.org/2000/svg">
<rect width="32" height="32" fill="#25A4E3"/>
<path d="M7.19158 16.0269C11.8444 14.0512 14.9471 12.7487 16.4995 12.1194C20.932 10.3225 21.853 10.0104 22.4533 10.0001C22.5853 9.99784 22.8806 10.0297 23.0718 10.181C23.2333 10.3087 23.2777 10.4812 23.2989 10.6022C23.3202 10.7233 23.3467 10.9991 23.3256 11.2146C23.0854 13.6743 22.0461 19.6433 21.5174 22.3983C21.2936 23.564 20.8531 23.9548 20.4266 23.9931C19.4997 24.0762 18.7959 23.3961 17.8982 22.8225C16.4934 21.9251 15.6998 21.3664 14.3363 20.4907C12.7605 19.4786 13.782 18.9223 14.6801 18.0132C14.9151 17.7753 18.9989 14.1551 19.0779 13.8267C19.0878 13.7856 19.097 13.6325 19.0037 13.5517C18.9103 13.4708 18.7726 13.4985 18.6732 13.5204C18.5323 13.5516 16.2882 14.9972 11.9409 17.8573C11.3039 18.2836 10.7269 18.4913 10.21 18.4804C9.64013 18.4684 8.54391 18.1664 7.72898 17.9082C6.72944 17.5915 5.93502 17.4241 6.0042 16.8863C6.04023 16.6062 6.43602 16.3197 7.19158 16.0269Z" fill="white"/>
<mask id="path-3-inside-1_133_616" fill="white">
<path d="M32 0H142V32H32V0Z"/>
</mask>
<path d="M32 0H142V32H32V0Z" fill="white"/>
<path d="M52.5654 9.20312V22H50.377V9.20312H52.5654ZM56.582 9.20312V10.9609H46.3955V9.20312H56.582ZM61.4072 22.1758C60.7041 22.1758 60.0684 22.0615 59.5 21.833C58.9375 21.5986 58.457 21.2734 58.0586 20.8574C57.666 20.4414 57.3643 19.9521 57.1533 19.3896C56.9424 18.8271 56.8369 18.2207 56.8369 17.5703V17.2188C56.8369 16.4746 56.9453 15.8008 57.1621 15.1973C57.3789 14.5938 57.6807 14.0781 58.0674 13.6504C58.4541 13.2168 58.9111 12.8857 59.4385 12.6572C59.9658 12.4287 60.5371 12.3145 61.1523 12.3145C61.832 12.3145 62.4268 12.4287 62.9365 12.6572C63.4463 12.8857 63.8682 13.208 64.2021 13.624C64.542 14.0342 64.7939 14.5234 64.958 15.0918C65.1279 15.6602 65.2129 16.2871 65.2129 16.9727V17.8779H57.8652V16.3574H63.1211V16.1904C63.1094 15.8096 63.0332 15.4521 62.8926 15.1182C62.7578 14.7842 62.5498 14.5146 62.2686 14.3096C61.9873 14.1045 61.6123 14.002 61.1436 14.002C60.792 14.002 60.4785 14.0781 60.2031 14.2305C59.9336 14.377 59.708 14.5908 59.5264 14.8721C59.3447 15.1533 59.2041 15.4932 59.1045 15.8916C59.0107 16.2842 58.9639 16.7266 58.9639 17.2188V17.5703C58.9639 17.9863 59.0195 18.373 59.1309 18.7305C59.248 19.082 59.418 19.3896 59.6406 19.6533C59.8633 19.917 60.1328 20.125 60.4492 20.2773C60.7656 20.4238 61.126 20.4971 61.5303 20.4971C62.04 20.4971 62.4941 20.3945 62.8926 20.1895C63.291 19.9844 63.6367 19.6943 63.9297 19.3193L65.0459 20.4004C64.8408 20.6992 64.5742 20.9863 64.2461 21.2617C63.918 21.5312 63.5166 21.751 63.042 21.9209C62.5732 22.0908 62.0283 22.1758 61.4072 22.1758ZM69.1328 8.5V22H67.0059V8.5H69.1328ZM75.6455 22.1758C74.9424 22.1758 74.3066 22.0615 73.7383 21.833C73.1758 21.5986 72.6953 21.2734 72.2969 20.8574C71.9043 20.4414 71.6025 19.9521 71.3916 19.3896C71.1807 18.8271 71.0752 18.2207 71.0752 17.5703V17.2188C71.0752 16.4746 71.1836 15.8008 71.4004 15.1973C71.6172 14.5938 71.9189 14.0781 72.3057 13.6504C72.6924 13.2168 73.1494 12.8857 73.6768 12.6572C74.2041 12.4287 74.7754 12.3145 75.3906 12.3145C76.0703 12.3145 76.665 12.4287 77.1748 12.6572C77.6846 12.8857 78.1064 13.208 78.4404 13.624C78.7803 14.0342 79.0322 14.5234 79.1963 15.0918C79.3662 15.6602 79.4512 16.2871 79.4512 16.9727V17.8779H72.1035V16.3574H77.3594V16.1904C77.3477 15.8096 77.2715 15.4521 77.1309 15.1182C76.9961 14.7842 76.7881 14.5146 76.5068 14.3096C76.2256 14.1045 75.8506 14.002 75.3818 14.002C75.0303 14.002 74.7168 14.0781 74.4414 14.2305C74.1719 14.377 73.9463 14.5908 73.7646 14.8721C73.583 15.1533 73.4424 15.4932 73.3428 15.8916C73.249 16.2842 73.2021 16.7266 73.2021 17.2188V17.5703C73.2021 17.9863 73.2578 18.373 73.3691 18.7305C73.4863 19.082 73.6562 19.3896 73.8789 19.6533C74.1016 19.917 74.3711 20.125 74.6875 20.2773C75.0039 20.4238 75.3643 20.4971 75.7686 20.4971C76.2783 20.4971 76.7324 20.3945 77.1309 20.1895C77.5293 19.9844 77.875 19.6943 78.168 19.3193L79.2842 20.4004C79.0791 20.6992 78.8125 20.9863 78.4844 21.2617C78.1562 21.5312 77.7549 21.751 77.2803 21.9209C76.8115 22.0908 76.2666 22.1758 75.6455 22.1758ZM87.1943 12.4902H89.1191V21.7363C89.1191 22.5918 88.9375 23.3184 88.5742 23.916C88.2109 24.5137 87.7041 24.9678 87.0537 25.2783C86.4033 25.5947 85.6504 25.7529 84.7949 25.7529C84.4316 25.7529 84.0273 25.7002 83.582 25.5947C83.1426 25.4893 82.7148 25.3193 82.2988 25.085C81.8887 24.8564 81.5459 24.5547 81.2705 24.1797L82.2637 22.9316C82.6035 23.3359 82.9785 23.6318 83.3887 23.8193C83.7988 24.0068 84.2295 24.1006 84.6807 24.1006C85.167 24.1006 85.5801 24.0098 85.9199 23.8281C86.2656 23.6523 86.5322 23.3916 86.7197 23.0459C86.9072 22.7002 87.001 22.2783 87.001 21.7803V14.6436L87.1943 12.4902ZM80.7344 17.3506V17.166C80.7344 16.4453 80.8223 15.7891 80.998 15.1973C81.1738 14.5996 81.4258 14.0869 81.7539 13.6592C82.082 13.2256 82.4805 12.8945 82.9492 12.666C83.418 12.4316 83.9482 12.3145 84.54 12.3145C85.1553 12.3145 85.6797 12.4258 86.1133 12.6484C86.5527 12.8711 86.9189 13.1904 87.2119 13.6064C87.5049 14.0166 87.7334 14.5088 87.8975 15.083C88.0674 15.6514 88.1934 16.2842 88.2754 16.9814V17.5703C88.1992 18.25 88.0703 18.8711 87.8887 19.4336C87.707 19.9961 87.4668 20.4824 87.168 20.8926C86.8691 21.3027 86.5 21.6191 86.0605 21.8418C85.627 22.0645 85.1143 22.1758 84.5225 22.1758C83.9424 22.1758 83.418 22.0557 82.9492 21.8154C82.4863 21.5752 82.0879 21.2383 81.7539 20.8047C81.4258 20.3711 81.1738 19.8613 80.998 19.2754C80.8223 18.6836 80.7344 18.042 80.7344 17.3506ZM82.8525 17.166V17.3506C82.8525 17.7842 82.8936 18.1885 82.9756 18.5635C83.0635 18.9385 83.1953 19.2695 83.3711 19.5566C83.5527 19.8379 83.7812 20.0605 84.0566 20.2246C84.3379 20.3828 84.6689 20.4619 85.0498 20.4619C85.5479 20.4619 85.9551 20.3564 86.2715 20.1455C86.5938 19.9346 86.8398 19.6504 87.0098 19.293C87.1855 18.9297 87.3086 18.5254 87.3789 18.0801V16.4893C87.3438 16.1436 87.2705 15.8213 87.1592 15.5225C87.0537 15.2236 86.9102 14.9629 86.7285 14.7402C86.5469 14.5117 86.3184 14.3359 86.043 14.2129C85.7676 14.084 85.4424 14.0195 85.0674 14.0195C84.6865 14.0195 84.3555 14.1016 84.0742 14.2656C83.793 14.4297 83.5615 14.6553 83.3799 14.9424C83.2041 15.2295 83.0723 15.5635 82.9844 15.9443C82.8965 16.3252 82.8525 16.7324 82.8525 17.166ZM93.4434 14.3008V22H91.3252V12.4902H93.3467L93.4434 14.3008ZM96.3525 12.4287L96.335 14.3975C96.2061 14.374 96.0654 14.3564 95.9131 14.3447C95.7666 14.333 95.6201 14.3271 95.4736 14.3271C95.1104 14.3271 94.791 14.3799 94.5156 14.4854C94.2402 14.585 94.0088 14.7314 93.8213 14.9248C93.6396 15.1123 93.499 15.3408 93.3994 15.6104C93.2998 15.8799 93.2412 16.1816 93.2236 16.5156L92.7402 16.5508C92.7402 15.9531 92.7988 15.3994 92.916 14.8896C93.0332 14.3799 93.209 13.9316 93.4434 13.5449C93.6836 13.1582 93.9824 12.8564 94.3398 12.6396C94.7031 12.4229 95.1221 12.3145 95.5967 12.3145C95.7256 12.3145 95.8633 12.3262 96.0098 12.3496C96.1621 12.373 96.2764 12.3994 96.3525 12.4287ZM102.725 20.0928V15.5576C102.725 15.2178 102.663 14.9248 102.54 14.6787C102.417 14.4326 102.229 14.2422 101.978 14.1074C101.731 13.9727 101.421 13.9053 101.046 13.9053C100.7 13.9053 100.401 13.9639 100.149 14.0811C99.8975 14.1982 99.7012 14.3564 99.5605 14.5557C99.4199 14.7549 99.3496 14.9805 99.3496 15.2324H97.2402C97.2402 14.8574 97.3311 14.4941 97.5127 14.1426C97.6943 13.791 97.958 13.4775 98.3037 13.2021C98.6494 12.9268 99.0625 12.71 99.543 12.5518C100.023 12.3936 100.562 12.3145 101.16 12.3145C101.875 12.3145 102.508 12.4346 103.059 12.6748C103.615 12.915 104.052 13.2783 104.368 13.7646C104.69 14.2451 104.852 14.8486 104.852 15.5752V19.8027C104.852 20.2363 104.881 20.626 104.939 20.9717C105.004 21.3115 105.095 21.6074 105.212 21.8594V22H103.041C102.941 21.7715 102.862 21.4814 102.804 21.1299C102.751 20.7725 102.725 20.4268 102.725 20.0928ZM103.032 16.2168L103.05 17.5264H101.529C101.137 17.5264 100.791 17.5645 100.492 17.6406C100.193 17.7109 99.9443 17.8164 99.7451 17.957C99.5459 18.0977 99.3965 18.2676 99.2969 18.4668C99.1973 18.666 99.1475 18.8916 99.1475 19.1436C99.1475 19.3955 99.2061 19.627 99.3232 19.8379C99.4404 20.043 99.6104 20.2041 99.833 20.3213C100.062 20.4385 100.337 20.4971 100.659 20.4971C101.093 20.4971 101.471 20.4092 101.793 20.2334C102.121 20.0518 102.379 19.832 102.566 19.5742C102.754 19.3105 102.854 19.0615 102.865 18.8271L103.551 19.7676C103.48 20.0078 103.36 20.2656 103.19 20.541C103.021 20.8164 102.798 21.0801 102.522 21.332C102.253 21.5781 101.928 21.7803 101.547 21.9385C101.172 22.0967 100.738 22.1758 100.246 22.1758C99.625 22.1758 99.0713 22.0527 98.585 21.8066C98.0986 21.5547 97.7178 21.2178 97.4424 20.7959C97.167 20.3682 97.0293 19.8848 97.0293 19.3457C97.0293 18.8418 97.123 18.3965 97.3105 18.0098C97.5039 17.6172 97.7852 17.2891 98.1543 17.0254C98.5293 16.7617 98.9863 16.5625 99.5254 16.4277C100.064 16.2871 100.68 16.2168 101.371 16.2168H103.032ZM109.185 14.4238V22H107.066V12.4902H109.062L109.185 14.4238ZM108.842 16.8936L108.121 16.8848C108.121 16.2285 108.203 15.6221 108.367 15.0654C108.531 14.5088 108.771 14.0254 109.088 13.6152C109.404 13.1992 109.797 12.8799 110.266 12.6572C110.74 12.4287 111.288 12.3145 111.909 12.3145C112.343 12.3145 112.738 12.3789 113.096 12.5078C113.459 12.6309 113.772 12.8271 114.036 13.0967C114.306 13.3662 114.511 13.7119 114.651 14.1338C114.798 14.5557 114.871 15.0654 114.871 15.6631V22H112.753V15.8477C112.753 15.3848 112.683 15.0215 112.542 14.7578C112.407 14.4941 112.211 14.3066 111.953 14.1953C111.701 14.0781 111.399 14.0195 111.048 14.0195C110.649 14.0195 110.31 14.0957 110.028 14.248C109.753 14.4004 109.527 14.6084 109.352 14.8721C109.176 15.1357 109.047 15.4404 108.965 15.7861C108.883 16.1318 108.842 16.501 108.842 16.8936ZM114.739 16.3311L113.746 16.5508C113.746 15.9766 113.825 15.4346 113.983 14.9248C114.147 14.4092 114.385 13.958 114.695 13.5713C115.012 13.1787 115.401 12.8711 115.864 12.6484C116.327 12.4258 116.857 12.3145 117.455 12.3145C117.941 12.3145 118.375 12.3818 118.756 12.5166C119.143 12.6455 119.471 12.8506 119.74 13.1318C120.01 13.4131 120.215 13.7793 120.355 14.2305C120.496 14.6758 120.566 15.2148 120.566 15.8477V22H118.439V15.8389C118.439 15.3584 118.369 14.9863 118.229 14.7227C118.094 14.459 117.9 14.2773 117.648 14.1777C117.396 14.0723 117.095 14.0195 116.743 14.0195C116.415 14.0195 116.125 14.0811 115.873 14.2041C115.627 14.3213 115.419 14.4883 115.249 14.7051C115.079 14.916 114.95 15.1592 114.862 15.4346C114.78 15.71 114.739 16.0088 114.739 16.3311Z" fill="#25A4E3"/>
<path d="M142 0H144V-2H142V0ZM142 32V34H144V32H142ZM32 2H142V-2H32V2ZM140 0V32H144V0H140ZM142 30H32V34H142V30Z" fill="#25A4E3" mask="url(#path-3-inside-1_133_616)"/>
</svg>
